<?xml version="1.0" encoding="UTF-8"?>
<!DOCTYPE svg PUBLIC "-//W3C//DTD SVG 1.1//EN" "http://www.w3.org/Graphics/SVG/1.1/DTD/svg11.dtd">
<svg xmlns="http://www.w3.org/2000/svg" version="1.1" width="325px" height="767px" style="shape-rendering:geometricPrecision; text-rendering:geometricPrecision; image-rendering:optimizeQuality; fill-rule:evenodd; clip-rule:evenodd" xmlns:xlink="http://www.w3.org/1999/xlink">
<g><path style="opacity:1" fill="#af8977" d="M 55.5,195.5 C 84.8741,192.476 100.874,205.476 103.5,234.5C 103.203,245.535 100.203,255.701 94.5,265C 96.3717,269.243 98.8717,273.077 102,276.5C 102.667,277.5 102.667,278.5 102,279.5C 94.8229,276.441 87.4896,273.774 80,271.5C 68.3083,274.912 56.4749,275.745 44.5,274C 38.2356,273.119 33.0689,270.285 29,265.5C 27.5341,267.325 25.7008,267.825 23.5,267C 16.9957,262.998 14.3291,257.331 15.5,250C 17.1667,249.333 18.8333,249.333 20.5,250C 25.5442,262.726 26.3776,262.559 23,249.5C 20.9631,235.514 22.9631,222.18 29,209.5C 36.5762,202.297 45.4095,197.63 55.5,195.5 Z M 66.5,216.5 C 65.71,217.609 65.21,218.942 65,220.5C 63.8333,217 62.6667,213.5 61.5,210C 62.0319,207.98 63.3652,207.147 65.5,207.5C 65.3677,210.57 65.701,213.57 66.5,216.5 Z M 71.5,203.5 C 72.552,203.351 73.552,203.517 74.5,204C 72.6734,204.899 71.34,206.233 70.5,208C 71.0223,208.95 71.689,209.784 72.5,210.5C 71.0062,215.184 72.1728,216.184 76,213.5C 77.7324,213.734 78.5658,214.734 78.5,216.5C 77.4613,218.531 75.7946,219.864 73.5,220.5C 71.2526,216.43 69.586,212.097 68.5,207.5C 68.7867,205.557 69.7867,204.223 71.5,203.5 Z M 57.5,209.5 C 60.8494,213.038 61.0161,216.705 58,220.5C 57.6905,219.234 57.1905,218.067 56.5,217C 56.4586,214.538 56.792,212.038 57.5,209.5 Z M 50.5,212.5 C 52.6569,213.053 52.4903,214.053 50,215.5C 49.51,216.793 49.3433,218.127 49.5,219.5C 50.552,219.351 51.552,219.517 52.5,220C 51.2986,220.903 50.4652,222.069 50,223.5C 48.8473,220.415 48.0139,217.581 47.5,215C 48.5707,214.148 49.5707,213.315 50.5,212.5 Z M 40.5,217.5 C 42.2225,219.253 43.7225,221.253 45,223.5C 45.3333,222.167 45.6667,220.833 46,219.5C 46.9949,223.145 47.8283,226.812 48.5,230.5C 47.5,230.5 46.5,230.5 45.5,230.5C 44.5157,224.011 43.6824,224.011 43,230.5C 42.3333,231.833 41.6667,231.833 41,230.5C 38.8353,226.673 37.502,222.673 37,218.5C 38.5737,219.984 39.907,221.651 41,223.5C 41.4901,221.455 41.3235,219.455 40.5,217.5 Z M 50.5,224.5 C 54.9602,225.206 55.4602,226.872 52,229.5C 51.3923,227.846 50.8923,226.179 50.5,224.5 Z M 74.5,225.5 C 73.6752,228.523 73.6752,231.356 74.5,234C 75.67,235.755 77.3367,236.755 79.5,237C 76.4491,238.723 73.2824,240.223 70,241.5C 68.2589,237.295 67.5922,232.962 68,228.5C 69.7342,226.549 71.9009,225.549 74.5,225.5 Z M 85.5,237.5 C 82.6517,234.295 81.6517,230.628 82.5,226.5C 84.2404,229.91 85.2404,233.577 85.5,237.5 Z M 61.5,228.5 C 62.5,228.5 63.5,228.5 64.5,228.5C 65.3357,232.841 65.8357,237.174 66,241.5C 64.0768,239.881 63.5768,238.048 64.5,236C 62.1051,233.761 61.1051,231.261 61.5,228.5 Z M 54.5,232.5 C 55.9953,232.415 56.9953,233.081 57.5,234.5C 56.6171,235.548 55.9504,236.715 55.5,238C 56.6868,240.724 57.3535,243.557 57.5,246.5C 56.0695,246.421 54.7362,246.754 53.5,247.5C 52.8333,244.167 52.1667,240.833 51.5,237.5C 50.3131,238.894 49.6465,238.727 49.5,237C 50.7615,235.038 52.4281,233.538 54.5,232.5 Z M 61.5,241.5 C 60.2973,240.057 59.7973,238.391 60,236.5C 61.2692,237.905 61.7692,239.571 61.5,241.5 Z M 81.5,242.5 C 80.4181,244.339 79.5847,246.339 79,248.5C 77.7947,246.466 77.628,244.466 78.5,242.5C 79.5272,243.791 80.5272,243.791 81.5,242.5 Z M 68.5,246.5 C 71.9067,246.125 72.4067,247.125 70,249.5C 68.9614,248.756 68.4614,247.756 68.5,246.5 Z M 49.5,256.5 C 48.1779,256.67 47.0113,256.337 46,255.5C 45.5,256 45,256.5 44.5,257C 45.6919,258.912 46.6919,260.912 47.5,263C 46.7248,264.23 45.7248,264.563 44.5,264C 41.9198,259.586 41.4198,255.086 43,250.5C 45.1239,255.396 46.4572,255.396 47,250.5C 48.6625,252.158 49.4959,254.158 49.5,256.5 Z M 64.5,251.5 C 67.7195,252.021 68.7195,253.688 67.5,256.5C 66.6801,254.681 65.6801,253.014 64.5,251.5 Z M 57.5,252.5 C 58.1174,252.611 58.6174,252.944 59,253.5C 59.2734,255.101 59.7734,256.601 60.5,258C 60.1667,258.167 59.8333,258.333 59.5,258.5C 58.5233,256.589 57.8567,254.589 57.5,252.5 Z M 52.5,253.5 C 55.2055,254.69 56.8721,256.856 57.5,260C 57.1667,260.5 56.8333,261 56.5,261.5C 54.1132,259.393 52.7799,256.727 52.5,253.5 Z M 61.5,254.5 C 62.2891,254.783 62.9558,255.283 63.5,256C 62.184,256.528 61.5173,256.028 61.5,254.5 Z M 50.5,258.5 C 52.0986,259.799 52.5986,261.465 52,263.5C 50.9914,261.975 50.4914,260.308 50.5,258.5 Z"/></g>
<g><path style="opacity:0.945" fill="#553731" d="M 237.5,275.5 C 238.966,276.347 239.8,277.68 240,279.5C 241.327,286.82 242.66,294.154 244,301.5C 244.414,301.957 244.914,302.291 245.5,302.5C 246.176,301.398 246.842,300.398 247.5,299.5C 248.865,307.783 249.865,316.116 250.5,324.5C 249.883,324.389 249.383,324.056 249,323.5C 248.213,316.845 247.547,310.179 247,303.5C 246.333,304.833 245.667,304.833 245,303.5C 244.821,307.025 244.321,310.359 243.5,313.5C 243.802,307.511 242.636,301.845 240,296.5C 239.311,295.643 238.478,294.977 237.5,294.5C 235.382,295.946 233.049,296.613 230.5,296.5C 230.665,293.15 230.498,289.817 230,286.5C 225.177,283.296 225.343,280.63 230.5,278.5C 232.985,278.796 234.652,280.129 235.5,282.5C 237.171,280.49 237.838,278.157 237.5,275.5 Z"/></g>
<g><path style="opacity:0.947" fill="#6b473e" d="M 247.5,299.5 C 246.842,300.398 246.176,301.398 245.5,302.5C 244.914,302.291 244.414,301.957 244,301.5C 242.66,294.154 241.327,286.82 240,279.5C 239.8,277.68 238.966,276.347 237.5,275.5C 233.216,269.686 227.883,268.519 221.5,272C 211.467,283.219 203.301,295.719 197,309.5C 195.399,314.136 193.899,318.802 192.5,323.5C 192.904,325.764 192.904,327.93 192.5,330C 190.396,332.042 189.229,334.542 189,337.5C 187.205,354.486 187.038,371.486 188.5,388.5C 190.308,388.491 191.975,388.991 193.5,390C 195.076,392.077 197.076,393.577 199.5,394.5C 199.833,394 200.167,393.5 200.5,393C 202.448,379.801 204.615,366.634 207,353.5C 208.783,347.933 211.117,342.599 214,337.5C 217.944,331.111 221.611,331.111 225,337.5C 225.667,350.833 225.667,364.167 225,377.5C 223.584,386.167 221.084,394.5 217.5,402.5C 220.935,403.367 224.268,404.534 227.5,406C 228.966,407.552 229.966,409.386 230.5,411.5C 231.325,412.386 232.325,412.719 233.5,412.5C 237.596,401.536 240.263,390.203 241.5,378.5C 242.791,377.527 242.791,376.527 241.5,375.5C 242.243,374.818 242.909,374.151 243.5,373.5C 246.152,353.456 246.152,333.456 243.5,313.5C 244.321,310.359 244.821,307.025 245,303.5C 245.667,304.833 246.333,304.833 247,303.5C 247.547,310.179 248.213,316.845 249,323.5C 249.383,324.056 249.883,324.389 250.5,324.5C 252.811,354.876 248.811,384.376 238.5,413C 245.352,418.186 251.186,424.353 256,431.5C 265.401,440.232 274.068,449.565 282,459.5C 285.928,472.618 290.262,485.618 295,498.5C 297.001,506.168 298.834,513.835 300.5,521.5C 299.068,524.668 298.401,528.001 298.5,531.5C 299.303,537.159 299.47,542.825 299,548.5C 295.715,558.072 292.715,567.738 290,577.5C 286.237,584.035 282.237,590.368 278,596.5C 274.919,599.293 271.419,601.46 267.5,603C 264.458,605.842 261.458,608.676 258.5,611.5C 260.001,613.957 261.668,613.957 263.5,611.5C 264.892,612.605 266.059,613.939 267,615.5C 271.199,612.641 275.699,610.808 280.5,610C 274.752,613.958 268.919,617.791 263,621.5C 262.5,622.5 262,623.5 261.5,624.5C 262.585,627.773 262.752,631.106 262,634.5C 261.331,637.267 260.164,637.767 258.5,636C 262.782,623.752 260.449,621.919 251.5,630.5C 250.5,630.167 249.833,629.5 249.5,628.5C 252.651,624.194 253.318,619.528 251.5,614.5C 246.298,615.289 241.298,616.789 236.5,619C 214.058,632.754 189.725,637.421 163.5,633C 141.153,633.873 119.487,630.54 98.5,623C 80.4547,615.813 63.4547,606.813 47.5,596C 45.1573,590.956 41.4906,587.29 36.5,585C 34.9588,583.421 33.7922,581.587 33,579.5C 31.2829,574.397 29.2829,569.397 27,564.5C 23.5074,543.276 22.8408,521.942 25,500.5C 26,498.833 27,497.167 28,495.5C 29.4549,489.465 31.1216,483.465 33,477.5C 37.8535,469.463 41.8535,461.13 45,452.5C 49.149,448.196 52.8157,443.53 56,438.5C 58.3333,436.833 60.6667,435.167 63,433.5C 65.5257,426.974 70.0257,422.474 76.5,420C 79.9639,414.705 83.9639,409.871 88.5,405.5C 80.334,365.484 85.834,327.484 105,291.5C 108.453,286.379 112.286,281.546 116.5,277C 119.468,274.683 122.801,273.183 126.5,272.5C 129.63,272.648 132.13,273.982 134,276.5C 153.955,313.019 159.789,351.686 151.5,392.5C 160.782,392.996 169.948,392.329 179,390.5C 180.226,390.645 181.393,390.978 182.5,391.5C 176.268,347.422 186.435,307.755 213,272.5C 216.913,266.878 222.246,263.544 229,262.5C 236.986,263.82 241.653,268.486 243,276.5C 244.502,284.184 246.002,291.851 247.5,299.5 Z M 153.5,400.5 C 156.976,399.357 160.642,399.19 164.5,400C 160.877,405.523 157.21,405.69 153.5,400.5 Z M 188.5,395.5 C 189.552,395.351 190.552,395.517 191.5,396C 193.298,398.472 195.632,400.139 198.5,401C 200.125,404.46 202.792,406.626 206.5,407.5C 208.961,406.693 211.294,407.193 213.5,409C 214.451,409.718 214.617,410.551 214,411.5C 212.333,413.5 210.667,415.5 209,417.5C 208.71,415.048 208.044,412.715 207,410.5C 205.951,409.483 204.784,409.316 203.5,410C 199.371,414.294 195.038,418.46 190.5,422.5C 189.291,416.17 189.291,409.837 190.5,403.5C 190.523,401.933 190.023,400.6 189,399.5C 183.291,402.534 178.125,406.367 173.5,411C 170.859,410.873 169.192,409.373 168.5,406.5C 173.803,401.518 180.136,398.685 187.5,398C 188.252,397.329 188.586,396.496 188.5,395.5 Z M 218.5,340.5 C 219.829,345.624 220.495,351.124 220.5,357C 221.341,371.788 218.841,385.954 213,399.5C 210.619,400.435 208.119,400.768 205.5,400.5C 207.168,386.488 209.001,372.488 211,358.5C 212.245,351.921 214.745,345.921 218.5,340.5 Z M 123.5,334.5 C 124.75,334.577 125.583,335.244 126,336.5C 131.445,357.608 130.111,378.275 122,398.5C 116.073,403.527 113.073,402.194 113,394.5C 112.333,384.167 112.333,373.833 113,363.5C 114.284,352.951 117.784,343.285 123.5,334.5 Z M 123.5,279.5 C 126.365,279.055 128.865,279.722 131,281.5C 148.496,314.625 153.83,349.625 147,386.5C 141.451,389.513 136.618,393.346 132.5,398C 130.741,398.798 129.074,398.631 127.5,397.5C 135.222,376.633 136.056,355.3 130,333.5C 127.472,326.451 123.806,325.784 119,331.5C 109.952,347.065 106.118,363.898 107.5,382C 107.616,388.521 107.949,395.021 108.5,401.5C 103.972,401.038 99.4719,400.371 95,399.5C 94.228,399.645 93.5613,399.978 93,400.5C 86.3613,370.59 89.028,341.59 101,313.5C 102.11,315.037 103.61,315.703 105.5,315.5C 105.916,312.64 104.916,310.474 102.5,309C 106.706,297.055 113.706,287.222 123.5,279.5 Z M 275.5,477.5 C 272.622,475.203 269.289,473.87 265.5,473.5C 266.355,468.011 264.022,464.677 258.5,463.5C 257.167,464.167 255.833,464.833 254.5,465.5C 250.87,458.866 246.037,457.866 240,462.5C 237.782,458.685 234.616,457.685 230.5,459.5C 228.482,458.141 226.482,456.807 224.5,455.5C 227.371,447.111 233.038,442.278 241.5,441C 237.5,445 237.5,449 241.5,453C 246.032,453.455 250.365,454.622 254.5,456.5C 257.517,455.62 258.184,453.786 256.5,451C 252.905,448.431 248.905,446.764 244.5,446C 246.303,445.363 247.636,444.197 248.5,442.5C 246.114,440.269 244.281,437.603 243,434.5C 240.162,433.325 237.329,433.491 234.5,435C 228.566,438.933 224.066,444.1 221,450.5C 220.123,452.674 220.623,454.341 222.5,455.5C 219.743,458.122 217.076,460.955 214.5,464C 211.604,464.06 208.937,463.227 206.5,461.5C 203.308,462.034 200.974,463.701 199.5,466.5C 197.42,464.411 195.087,462.744 192.5,461.5C 191.062,461.719 189.729,462.219 188.5,463C 186.707,465.795 184.54,468.295 182,470.5C 181.564,463.733 178.064,461.233 171.5,463C 168.704,466.114 166.038,469.281 163.5,472.5C 161.254,467.987 158.087,464.321 154,461.5C 150.385,462.784 147.718,465.117 146,468.5C 141.93,464.829 137.764,461.329 133.5,458C 130.112,458.541 126.779,459.374 123.5,460.5C 123.5,459.5 123.5,458.5 123.5,457.5C 122.317,449.626 119.317,442.46 114.5,436C 116.036,434.401 116.536,432.567 116,430.5C 114.167,428.667 112.333,426.833 110.5,425C 105.008,424.514 103.175,427.014 105,432.5C 109.784,437.956 113.784,443.956 117,450.5C 117.484,452.193 116.984,453.527 115.5,454.5C 113.629,454.859 112.129,455.859 111,457.5C 107.816,451.448 103.316,450.114 97.5,453.5C 96.8933,453.376 96.56,453.043 96.5,452.5C 97.0434,451.258 97.3767,449.925 97.5,448.5C 96.0558,445.29 95.5558,441.957 96,438.5C 97.1827,439.731 98.3493,439.731 99.5,438.5C 100.447,436.941 101.113,435.274 101.5,433.5C 100.818,429.862 100.318,426.195 100,422.5C 98.8456,420.043 97.5123,420.043 96,422.5C 95.5026,425.146 95.3359,427.813 95.5,430.5C 92.7615,429.965 90.9282,430.965 90,433.5C 90.1859,437.484 90.1859,441.484 90,445.5C 88.4278,442.178 86.2612,439.344 83.5,437C 76.6137,436.855 70.7804,439.355 66,444.5C 65.2571,446.441 65.4238,448.274 66.5,450C 66.1667,450.167 65.8333,450.333 65.5,450.5C 64.396,448.611 63.0627,446.945 61.5,445.5C 58.8136,447.856 56.147,450.189 53.5,452.5C 56.7365,444.103 62.9032,439.103 72,437.5C 73.5892,435.089 73.0892,432.922 70.5,431C 73.5017,428.497 76.8351,426.497 80.5,425C 84.3504,419.243 89.6837,417.076 96.5,418.5C 96.8957,415.956 96.229,413.789 94.5,412C 95.9154,409.208 98.2487,407.708 101.5,407.5C 102.495,413.128 102.829,418.794 102.5,424.5C 103.93,424.579 105.264,424.246 106.5,423.5C 107.321,420.553 107.821,417.553 108,414.5C 110.434,418.382 113.101,422.048 116,425.5C 116.915,423.02 118.415,422.353 120.5,423.5C 121.833,422.5 123.167,421.5 124.5,420.5C 127.765,424.132 131.765,426.132 136.5,426.5C 136.66,424.801 136.494,423.134 136,421.5C 131.262,417.759 126.262,414.426 121,411.5C 118.679,412.487 117.013,414.154 116,416.5C 114.877,413.751 113.377,411.251 111.5,409C 116.929,408.23 121.929,406.397 126.5,403.5C 127.748,404.04 128.915,404.707 130,405.5C 132.382,404.446 134.882,403.779 137.5,403.5C 137.336,406.187 137.503,408.854 138,411.5C 139.464,412.459 140.297,413.792 140.5,415.5C 139.698,418.449 139.364,421.449 139.5,424.5C 141.144,424.714 142.644,424.38 144,423.5C 144.995,418.547 145.662,413.547 146,408.5C 147.955,410.911 149.789,413.411 151.5,416C 154.216,418.151 156.716,417.984 159,415.5C 159.837,413.156 161.171,411.156 163,409.5C 165.671,413.169 168.671,416.503 172,419.5C 175.706,416.13 179.706,413.13 184,410.5C 185.557,413.294 185.89,416.294 185,419.5C 183.211,426.76 180.544,433.76 177,440.5C 175.99,445.558 176.49,450.391 178.5,455C 179.449,455.617 180.282,455.451 181,454.5C 179.895,440.868 185.395,431.035 197.5,425C 199.7,422.766 201.533,420.266 203,417.5C 203.546,420.899 203.213,424.232 202,427.5C 199.436,431.462 197.269,435.629 195.5,440C 196.219,442.556 197.886,443.723 200.5,443.5C 200.01,445.948 200.843,447.615 203,448.5C 205.336,444.665 208.503,441.665 212.5,439.5C 213.206,441.766 213.039,444.099 212,446.5C 208.666,448.642 207.499,451.475 208.5,455C 209.833,455.667 211.167,455.667 212.5,455C 216.217,450.523 218.384,445.357 219,439.5C 220.333,438.167 221.667,438.167 223,439.5C 227.599,432.567 227.599,425.567 223,418.5C 222.503,416.19 222.337,413.857 222.5,411.5C 223.822,411.33 224.989,411.663 226,412.5C 226.45,414.519 227.283,416.352 228.5,418C 240.184,420.666 248.684,427.5 254,438.5C 257.167,441 260.333,443.5 263.5,446C 260.803,449.271 261.136,452.271 264.5,455C 262.5,455.667 261.167,457 260.5,459C 264.64,463.14 268.806,467.306 273,471.5C 273.667,470.167 274.333,470.167 275,471.5C 275.495,473.473 275.662,475.473 275.5,477.5 Z M 153.5,408.5 C 154.289,408.783 154.956,409.283 155.5,410C 154.184,410.528 153.517,410.028 153.5,408.5 Z M 216.5,416.5 C 217.81,419.399 219.143,422.399 220.5,425.5C 213.21,430.292 206.71,435.959 201,442.5C 202.983,437.523 205.316,432.523 208,427.5C 209.241,429.421 210.741,429.754 212.5,428.5C 212.832,424.095 214.165,420.095 216.5,416.5 Z M 87.5,453.5 C 86.8153,455.414 86.3153,457.414 86,459.5C 83.2135,456.313 80.0469,455.479 76.5,457C 73.9774,459.749 72.3107,462.916 71.5,466.5C 68.9382,465.629 66.2716,465.629 63.5,466.5C 61.9147,465.526 60.9147,464.026 60.5,462C 51.6979,459.971 48.3646,463.471 50.5,472.5C 48.9317,471.527 47.265,471.36 45.5,472C 43.5323,476.773 40.699,480.94 37,484.5C 36.8333,484 36.6667,483.5 36.5,483C 39.5882,478.989 41.7549,474.489 43,469.5C 44.6837,467.649 46.5171,465.982 48.5,464.5C 49.3352,461.86 49.5019,459.193 49,456.5C 50.0391,455.29 51.2058,454.29 52.5,453.5C 52.5,455.5 52.5,457.5 52.5,459.5C 56.125,458.937 59.625,457.937 63,456.5C 65.7191,457.444 68.5525,457.777 71.5,457.5C 71.6621,455.473 71.4955,453.473 71,451.5C 70.2496,450.874 69.4162,450.374 68.5,450C 71.8556,446.479 75.8556,443.979 80.5,442.5C 81.6721,442.919 82.6721,443.585 83.5,444.5C 84.9075,447.54 86.2409,450.54 87.5,453.5 Z M 272.5,457.5 C 276.135,459.607 278.301,462.607 279,466.5C 275.774,464.131 273.608,461.131 272.5,457.5 Z M 56.5,474.5 C 53.4823,475.855 52.149,478.188 52.5,481.5C 50.5,481.5 48.5,481.5 46.5,481.5C 47.7927,479.704 49.2927,478.037 51,476.5C 51.5791,475.072 51.4124,473.738 50.5,472.5C 53.8408,473.157 55.8408,471.824 56.5,468.5C 57.6942,470.516 57.6942,472.516 56.5,474.5 Z M 276.5,478.5 C 277.861,480.85 279.194,483.184 280.5,485.5C 279.18,484.058 277.514,483.392 275.5,483.5C 275.216,481.585 275.549,479.919 276.5,478.5 Z M 44.5,486.5 C 44.8769,488.258 45.5435,489.925 46.5,491.5C 45.9646,493.271 45.1313,493.604 44,492.5C 43.1841,493.823 42.0174,494.489 40.5,494.5C 40.5176,491.079 41.851,488.412 44.5,486.5 Z M 281.5,487.5 C 283.885,490.653 285.218,494.32 285.5,498.5C 283.683,497.184 282.017,495.684 280.5,494C 281.287,491.901 281.62,489.734 281.5,487.5 Z M 35.5,488.5 C 35.6882,490.103 35.1882,491.437 34,492.5C 33.6522,490.86 34.1522,489.527 35.5,488.5 Z M 39.5,495.5 C 38.2602,498.445 38.2602,501.445 39.5,504.5C 36.9309,508.087 35.2643,512.087 34.5,516.5C 37.0374,522.18 36.7041,527.68 33.5,533C 33.6667,533.833 33.8333,534.667 34,535.5C 35.7347,537.611 37.568,539.611 39.5,541.5C 37.6696,543.975 36.3363,546.641 35.5,549.5C 35.8128,551.981 36.8128,554.147 38.5,556C 37.1799,561.373 38.6799,565.873 43,569.5C 42.812,573.232 44.312,576.066 47.5,578C 47.0426,578.414 46.7093,578.914 46.5,579.5C 50.0007,584.497 54.0007,588.997 58.5,593C 62.8815,594.725 66.7148,597.225 70,600.5C 73.3957,600.31 76.5623,602.143 79.5,606C 83.8842,607.095 87.8842,608.261 91.5,609.5C 93.9251,608.645 95.7584,609.645 97,612.5C 98.0495,611.483 99.2161,611.316 100.5,612C 104.646,616.073 109.48,617.573 115,616.5C 117.019,618.682 119.519,619.682 122.5,619.5C 125.238,619.046 127.738,618.713 130,618.5C 130.724,620.959 132.057,621.959 134,621.5C 134.674,622.578 135.674,623.245 137,623.5C 140.726,621.571 144.559,621.238 148.5,622.5C 151.843,621.974 155.01,620.974 158,619.5C 160.449,619.937 162.783,619.937 165,619.5C 166.194,620.43 167.527,621.097 169,621.5C 176.179,621.479 183.346,621.479 190.5,621.5C 195.219,618.091 200.386,617.091 206,618.5C 209.297,618.309 212.13,617.142 214.5,615C 216.764,614.764 218.931,614.264 221,613.5C 221.333,613.833 221.667,614.167 222,614.5C 223.878,613.947 225.378,612.947 226.5,611.5C 232.989,609.552 239.322,607.719 245.5,606C 246.823,605.184 247.489,604.017 247.5,602.5C 251.934,600.71 255.934,598.377 259.5,595.5C 262.542,595.267 265.208,594.267 267.5,592.5C 268.043,592.56 268.376,592.893 268.5,593.5C 267.5,594.5 266.5,595.5 265.5,596.5C 260.812,599.178 256.479,602.344 252.5,606C 240.004,610.167 228.004,615.501 216.5,622C 211.625,623.802 206.625,625.135 201.5,626C 177.857,624.96 154.191,624.294 130.5,624C 120.16,623.108 110.16,620.775 100.5,617C 81.9507,610.31 64.784,601.144 49,589.5C 44.2423,583.082 39.909,576.416 36,569.5C 31.1407,551.408 29.6407,533.075 31.5,514.5C 30.8333,511.833 30.1667,509.167 29.5,506.5C 30.6131,502.94 32.2798,499.607 34.5,496.5C 36.0453,495.548 37.712,495.215 39.5,495.5 Z M 288.5,501.5 C 289.496,501.414 290.329,501.748 291,502.5C 291.256,505.557 291.756,508.557 292.5,511.5C 293.661,518.291 293.661,525.291 292.5,532.5C 293.22,535.989 293.887,539.489 294.5,543C 291.686,555.468 287.853,567.635 283,579.5C 279.619,583.759 276.119,587.926 272.5,592C 271.517,592.591 270.85,592.257 270.5,591C 271.044,589.415 271.711,587.915 272.5,586.5C 273.88,583.436 275.88,580.769 278.5,578.5C 278.432,573.546 280.265,569.546 284,566.5C 284.504,562.259 286.338,558.759 289.5,556C 288.167,555 288.167,554 289.5,553C 288.583,550.419 287.249,548.086 285.5,546C 286.598,543.54 287.598,541.04 288.5,538.5C 286.471,535.093 285.137,531.427 284.5,527.5C 286.796,524.694 288.463,521.527 289.5,518C 288.574,514.765 287.241,511.765 285.5,509C 286.583,506.465 287.583,503.965 288.5,501.5 Z M 257.5,619.5 C 258.713,620.497 258.546,621.497 257,622.5C 255.205,621.281 255.372,620.281 257.5,619.5 Z"/></g>
<g><path style="opacity:1" fill="#61463f" d="M 229.5,383.5 C 235.812,383.896 236.645,385.896 232,389.5C 228.702,388.427 227.868,386.427 229.5,383.5 Z"/></g>
<g><path style="opacity:0.067" fill="#3a2b27" d="M 243.5,373.5 C 242.909,374.151 242.243,374.818 241.5,375.5C 242.791,376.527 242.791,377.527 241.5,378.5C 238.75,379.191 236.083,380.191 233.5,381.5C 230.853,379.451 230.019,376.784 231,373.5C 235.118,370.887 239.285,370.887 243.5,373.5 Z"/></g>
<g><path style="opacity:0.815" fill="#634541" d="M 191.5,364.5 C 195.184,365.372 196.184,367.539 194.5,371C 190.494,371.987 188.661,370.487 189,366.5C 189.995,365.934 190.828,365.267 191.5,364.5 Z"/></g>
<g><path style="opacity:1" fill="#6a4540" d="M 240.5,360.5 C 241.5,360.5 242.5,360.5 243.5,360.5C 243.326,362.861 242.993,365.194 242.5,367.5C 236.791,366.436 236.124,364.103 240.5,360.5 Z"/></g>
<g><path style="opacity:0.592" fill="#644240" d="M 190.5,347.5 C 193.839,349.147 194.173,351.147 191.5,353.5C 190.5,353.167 189.833,352.5 189.5,351.5C 189.788,350.139 190.121,348.806 190.5,347.5 Z"/></g>
<g><path style="opacity:0.967" fill="#68463f" d="M 235.5,335.5 C 236.833,335.5 238.167,335.5 239.5,335.5C 239.433,337.401 239.767,339.234 240.5,341C 237.339,344.28 235.005,343.614 233.5,339C 233.978,337.697 234.645,336.531 235.5,335.5 Z"/></g>
<g><path style="opacity:0.812" fill="#684a40" d="M 194.5,326.5 C 197.468,326.626 199.468,328.126 200.5,331C 199.045,333.016 197.045,333.849 194.5,333.5C 194.15,330.959 194.15,328.626 194.5,326.5 Z"/></g>
<g><path style="opacity:1" fill="#6a4840" d="M 138.5,364.5 C 140.527,364.338 142.527,364.505 144.5,365C 147.105,366.931 147.105,368.764 144.5,370.5C 142.885,369.846 141.218,369.346 139.5,369C 138.62,367.644 138.286,366.144 138.5,364.5 Z"/></g>
<g><path style="opacity:1" fill="#684640" d="M 91.5,358.5 C 93.1992,358.34 94.8659,358.506 96.5,359C 97.8333,360.333 97.8333,361.667 96.5,363C 94.8659,363.494 93.1992,363.66 91.5,363.5C 91.5,361.833 91.5,360.167 91.5,358.5 Z"/></g>
<g><path style="opacity:0.927" fill="#6b4841" d="M 142.5,347.5 C 143.5,347.5 144.5,347.5 145.5,347.5C 146.036,350.665 145.203,353.331 143,355.5C 139.917,353.051 139.751,350.384 142.5,347.5 Z"/></g>
<g><path style="opacity:0.953" fill="#6a473f" d="M 99.5,335.5 C 104.123,334.408 105.956,336.075 105,340.5C 104.282,341.451 103.449,341.617 102.5,341C 100.393,339.736 99.393,337.903 99.5,335.5 Z"/></g>
<g><path style="opacity:0.854" fill="#63463f" d="M 142.5,331.5 C 143.833,331.5 145.167,331.5 146.5,331.5C 146.876,334.619 145.709,336.953 143,338.5C 141.115,338.138 140.281,336.971 140.5,335C 140.862,333.566 141.528,332.399 142.5,331.5 Z"/></g>
<g><path style="opacity:0.416" fill="#77544f" d="M 134.5,312.5 C 137.569,312.963 138.069,314.296 136,316.5C 134.812,315.437 134.312,314.103 134.5,312.5 Z"/></g>
<g><path style="opacity:0.843" fill="#65473e" d="M 121.5,298.5 C 123.463,299.96 125.296,301.627 127,303.5C 127.667,307.167 126.333,308.167 123,306.5C 121.748,303.986 121.248,301.32 121.5,298.5 Z"/></g>
<g><path style="opacity:0.804" fill="#61433c" d="M 119.5,286.5 C 123.264,287.385 124.264,289.552 122.5,293C 121.216,293.684 120.049,293.517 119,292.5C 118.322,290.402 118.489,288.402 119.5,286.5 Z"/></g>
<g><path style="opacity:0.841" fill="#6d4840" d="M 123.5,457.5 C 121.072,455.957 118.406,454.957 115.5,454.5C 116.984,453.527 117.484,452.193 117,450.5C 113.784,443.956 109.784,437.956 105,432.5C 103.175,427.014 105.008,424.514 110.5,425C 112.333,426.833 114.167,428.667 116,430.5C 116.536,432.567 116.036,434.401 114.5,436C 119.317,442.46 122.317,449.626 123.5,457.5 Z"/></g>
<g><path style="opacity:0.997" fill="#6b463e" d="M 96.5,452.5 C 93.3915,452.264 90.3915,452.597 87.5,453.5C 86.2409,450.54 84.9075,447.54 83.5,444.5C 82.6721,443.585 81.6721,442.919 80.5,442.5C 75.8556,443.979 71.8556,446.479 68.5,450C 69.4162,450.374 70.2496,450.874 71,451.5C 71.4955,453.473 71.6621,455.473 71.5,457.5C 68.5525,457.777 65.7191,457.444 63,456.5C 59.625,457.937 56.125,458.937 52.5,459.5C 52.5,457.5 52.5,455.5 52.5,453.5C 53.1667,453.5 53.5,453.167 53.5,452.5C 56.147,450.189 58.8136,447.856 61.5,445.5C 63.0627,446.945 64.396,448.611 65.5,450.5C 65.8333,450.333 66.1667,450.167 66.5,450C 65.4238,448.274 65.2571,446.441 66,444.5C 70.7804,439.355 76.6137,436.855 83.5,437C 86.2612,439.344 88.4278,442.178 90,445.5C 90.1859,441.484 90.1859,437.484 90,433.5C 90.9282,430.965 92.7615,429.965 95.5,430.5C 95.3359,427.813 95.5026,425.146 96,422.5C 97.5123,420.043 98.8456,420.043 100,422.5C 100.318,426.195 100.818,429.862 101.5,433.5C 101.113,435.274 100.447,436.941 99.5,438.5C 98.3493,439.731 97.1827,439.731 96,438.5C 95.5558,441.957 96.0558,445.29 97.5,448.5C 97.3767,449.925 97.0434,451.258 96.5,452.5 Z"/></g>
<g><path style="opacity:1" fill="#6c483e" d="M 224.5,455.5 C 223.833,455.5 223.167,455.5 222.5,455.5C 220.623,454.341 220.123,452.674 221,450.5C 224.066,444.1 228.566,438.933 234.5,435C 237.329,433.491 240.162,433.325 243,434.5C 244.281,437.603 246.114,440.269 248.5,442.5C 247.636,444.197 246.303,445.363 244.5,446C 248.905,446.764 252.905,448.431 256.5,451C 258.184,453.786 257.517,455.62 254.5,456.5C 250.365,454.622 246.032,453.455 241.5,453C 237.5,449 237.5,445 241.5,441C 233.038,442.278 227.371,447.111 224.5,455.5 Z"/></g>
<g><path style="opacity:1" fill="#6b463e" d="M 141.5,426.5 C 143.903,426.393 145.736,427.393 147,429.5C 150.259,436.277 152.926,443.277 155,450.5C 157.856,442.309 162.356,435.142 168.5,429C 169.5,428.333 170.5,428.333 171.5,429C 174.854,437.483 175.02,445.983 172,454.5C 170.333,456.167 168.667,457.833 167,459.5C 164.935,458.372 164.268,456.706 165,454.5C 169.425,449.734 170.425,444.4 168,438.5C 162.773,443.338 159.939,449.338 159.5,456.5C 157.602,457.734 155.935,457.401 154.5,455.5C 153.749,456.376 153.249,457.376 153,458.5C 152,457.833 151,457.167 150,456.5C 149.775,448.851 147.608,441.851 143.5,435.5C 142.28,435.887 141.613,436.72 141.5,438C 142.579,442.458 142.746,446.958 142,451.5C 140.951,453.107 139.451,453.773 137.5,453.5C 136.641,443.969 137.974,434.969 141.5,426.5 Z"/></g>
<g><path style="opacity:1" fill="#efe1d6" d="M 115.5,454.5 C 118.406,454.957 121.072,455.957 123.5,457.5C 123.5,458.5 123.5,459.5 123.5,460.5C 126.779,459.374 130.112,458.541 133.5,458C 137.764,461.329 141.93,464.829 146,468.5C 147.718,465.117 150.385,462.784 154,461.5C 158.087,464.321 161.254,467.987 163.5,472.5C 166.038,469.281 168.704,466.114 171.5,463C 178.064,461.233 181.564,463.733 182,470.5C 184.54,468.295 186.707,465.795 188.5,463C 189.729,462.219 191.062,461.719 192.5,461.5C 195.087,462.744 197.42,464.411 199.5,466.5C 200.974,463.701 203.308,462.034 206.5,461.5C 208.937,463.227 211.604,464.06 214.5,464C 217.076,460.955 219.743,458.122 222.5,455.5C 223.167,455.5 223.833,455.5 224.5,455.5C 226.482,456.807 228.482,458.141 230.5,459.5C 234.616,457.685 237.782,458.685 240,462.5C 246.037,457.866 250.87,458.866 254.5,465.5C 255.833,464.833 257.167,464.167 258.5,463.5C 264.022,464.677 266.355,468.011 265.5,473.5C 269.289,473.87 272.622,475.203 275.5,477.5C 276.167,477.5 276.5,477.833 276.5,478.5C 275.549,479.919 275.216,481.585 275.5,483.5C 277.514,483.392 279.18,484.058 280.5,485.5C 281.338,485.842 281.672,486.508 281.5,487.5C 281.62,489.734 281.287,491.901 280.5,494C 282.017,495.684 283.683,497.184 285.5,498.5C 286.306,499.728 287.306,500.728 288.5,501.5C 287.583,503.965 286.583,506.465 285.5,509C 287.241,511.765 288.574,514.765 289.5,518C 288.463,521.527 286.796,524.694 284.5,527.5C 285.137,531.427 286.471,535.093 288.5,538.5C 287.598,541.04 286.598,543.54 285.5,546C 287.249,548.086 288.583,550.419 289.5,553C 288.167,554 288.167,555 289.5,556C 286.338,558.759 284.504,562.259 284,566.5C 280.265,569.546 278.432,573.546 278.5,578.5C 275.88,580.769 273.88,583.436 272.5,586.5C 269.487,586.581 267.487,587.914 266.5,590.5C 264.224,592.351 261.891,594.018 259.5,595.5C 255.934,598.377 251.934,600.71 247.5,602.5C 244.811,604.11 241.811,604.943 238.5,605C 235.956,607.093 232.956,608.093 229.5,608C 227.944,608.72 226.944,609.887 226.5,611.5C 225.378,612.947 223.878,613.947 222,614.5C 221.667,614.167 221.333,613.833 221,613.5C 218.931,614.264 216.764,614.764 214.5,615C 212.13,617.142 209.297,618.309 206,618.5C 200.386,617.091 195.219,618.091 190.5,621.5C 183.346,621.479 176.179,621.479 169,621.5C 167.527,621.097 166.194,620.43 165,619.5C 162.783,619.937 160.449,619.937 158,619.5C 155.01,620.974 151.843,621.974 148.5,622.5C 144.559,621.238 140.726,621.571 137,623.5C 135.674,623.245 134.674,622.578 134,621.5C 132.057,621.959 130.724,620.959 130,618.5C 127.738,618.713 125.238,619.046 122.5,619.5C 119.519,619.682 117.019,618.682 115,616.5C 109.48,617.573 104.646,616.073 100.5,612C 99.2161,611.316 98.0495,611.483 97,612.5C 95.7584,609.645 93.9251,608.645 91.5,609.5C 87.8842,608.261 83.8842,607.095 79.5,606C 76.5623,602.143 73.3957,600.31 70,600.5C 66.7148,597.225 62.8815,594.725 58.5,593C 54.0007,588.997 50.0007,584.497 46.5,579.5C 46.7093,578.914 47.0426,578.414 47.5,578C 44.312,576.066 42.812,573.232 43,569.5C 38.6799,565.873 37.1799,561.373 38.5,556C 36.8128,554.147 35.8128,551.981 35.5,549.5C 36.3363,546.641 37.6696,543.975 39.5,541.5C 37.568,539.611 35.7347,537.611 34,535.5C 33.8333,534.667 33.6667,533.833 33.5,533C 36.7041,527.68 37.0374,522.18 34.5,516.5C 35.2643,512.087 36.9309,508.087 39.5,504.5C 38.2602,501.445 38.2602,498.445 39.5,495.5C 40.1667,495.5 40.5,495.167 40.5,494.5C 42.0174,494.489 43.1841,493.823 44,492.5C 45.1313,493.604 45.9646,493.271 46.5,491.5C 45.5435,489.925 44.8769,488.258 44.5,486.5C 45.0241,484.694 45.6908,483.028 46.5,481.5C 48.5,481.5 50.5,481.5 52.5,481.5C 52.149,478.188 53.4823,475.855 56.5,474.5C 57.4959,474.414 58.3292,474.748 59,475.5C 61.5378,473.005 63.0378,470.005 63.5,466.5C 66.2716,465.629 68.9382,465.629 71.5,466.5C 72.3107,462.916 73.9774,459.749 76.5,457C 80.0469,455.479 83.2135,456.313 86,459.5C 86.3153,457.414 86.8153,455.414 87.5,453.5C 90.3915,452.597 93.3915,452.264 96.5,452.5C 96.56,453.043 96.8933,453.376 97.5,453.5C 103.316,450.114 107.816,451.448 111,457.5C 112.129,455.859 113.629,454.859 115.5,454.5 Z"/></g>
<g><path style="opacity:1" fill="#734e45" d="M 63.5,466.5 C 63.0378,470.005 61.5378,473.005 59,475.5C 58.3292,474.748 57.4959,474.414 56.5,474.5C 57.6942,472.516 57.6942,470.516 56.5,468.5C 55.8408,471.824 53.8408,473.157 50.5,472.5C 48.3646,463.471 51.6979,459.971 60.5,462C 60.9147,464.026 61.9147,465.526 63.5,466.5 Z"/></g>
<g><path style="opacity:1" fill="#d6c5b5" d="M 217.5,511.5 C 215.938,511.733 214.605,512.4 213.5,513.5C 205.541,517.581 197.207,518.414 188.5,516C 186.003,515.588 184.003,514.422 182.5,512.5C 185.497,511.524 188.497,511.69 191.5,513C 205.834,515.996 216.501,511.163 223.5,498.5C 224.325,497.614 225.325,497.281 226.5,497.5C 226.628,499.655 226.128,501.655 225,503.5C 222.295,506.036 219.795,508.703 217.5,511.5 Z"/></g>
<g><path style="opacity:1" fill="#d5c4b5" d="M 131.5,518.5 C 127.298,518.183 123.298,518.517 119.5,519.5C 118.508,519.672 117.842,519.338 117.5,518.5C 112.443,515.404 107.109,512.571 101.5,510C 99.1842,507.265 97.0175,504.432 95,501.5C 94.2195,500.056 94.3861,498.723 95.5,497.5C 98.2735,501.777 101.607,505.61 105.5,509C 112.16,512.165 119.16,513.998 126.5,514.5C 130.827,514.444 134.827,513.444 138.5,511.5C 138.649,512.552 138.483,513.552 138,514.5C 135.982,516.25 133.815,517.584 131.5,518.5 Z"/></g>
<g><path style="opacity:1" fill="#eac29e" d="M 265.5,516.5 C 268.493,518.604 271.659,520.604 275,522.5C 275.465,526.848 275.965,531.181 276.5,535.5C 274.61,535.297 273.11,535.963 272,537.5C 271.667,536.833 271.333,536.167 271,535.5C 267.505,536.106 264.005,536.44 260.5,536.5C 259.252,535.96 258.085,535.293 257,534.5C 253.477,525.255 256.31,519.255 265.5,516.5 Z"/></g>
<g><path style="opacity:1" fill="#efedec" d="M 110.5,519.5 C 105.332,522.802 101.832,527.469 100,533.5C 96.0778,547.65 99.2445,559.816 109.5,570C 115.169,572.524 120.002,571.358 124,566.5C 130.629,555.628 132.296,543.962 129,531.5C 127.049,526.399 123.883,522.399 119.5,519.5C 123.298,518.517 127.298,518.183 131.5,518.5C 136.543,519.208 138.709,522.208 138,527.5C 138.903,538.226 138.569,548.893 137,559.5C 135.205,563.052 133.705,566.718 132.5,570.5C 127.676,572.162 123.343,574.662 119.5,578C 118.167,578.167 116.833,578.333 115.5,578.5C 110.195,577.401 105.028,575.734 100,573.5C 98.4284,569.359 96.0951,565.692 93,562.5C 88.5067,549.466 88.5067,536.466 93,523.5C 95.37,521.629 97.87,519.962 100.5,518.5C 101.531,517.3 102.365,515.966 103,514.5C 104.95,514.751 107.116,515.418 109.5,516.5C 110.386,517.325 110.719,518.325 110.5,519.5 Z"/></g>
<g><path style="opacity:1" fill="#938981" d="M 117.5,518.5 C 117.842,519.338 118.508,519.672 119.5,519.5C 123.883,522.399 127.049,526.399 129,531.5C 132.296,543.962 130.629,555.628 124,566.5C 120.002,571.358 115.169,572.524 109.5,570C 99.2445,559.816 96.0778,547.65 100,533.5C 101.832,527.469 105.332,522.802 110.5,519.5C 112.717,518.631 115.05,518.298 117.5,518.5 Z"/></g>
<g><path style="opacity:1" fill="#f1d2ba" d="M 57.5,512.5 C 57.7352,511.903 58.2352,511.57 59,511.5C 62.8805,511.685 66.2138,513.019 69,515.5C 71.7908,521.435 71.6242,527.102 68.5,532.5C 66.4904,533.065 64.8237,534.065 63.5,535.5C 53.3566,538.764 47.0232,535.264 44.5,525C 45.3219,522.528 45.9886,520.028 46.5,517.5C 49.8474,515.809 53.1807,514.142 56.5,512.5C 56.5,512.833 56.5,513.167 56.5,513.5C 53.8471,515.234 51.3471,517.234 49,519.5C 48.3425,522.285 47.5091,524.951 46.5,527.5C 47.5,527.5 48.5,527.5 49.5,527.5C 50.4821,517.016 51.3155,517.016 52,527.5C 53.0951,532.468 55.9285,534.134 60.5,532.5C 66.5749,530.687 68.7416,526.687 67,520.5C 64.9135,517.906 62.4135,515.906 59.5,514.5C 59.1667,513.5 58.5,512.833 57.5,512.5 Z"/></g>
<g><path style="opacity:1" fill="#eac099" d="M 56.5,513.5 C 57.0527,515.552 58.0527,515.885 59.5,514.5C 62.4135,515.906 64.9135,517.906 67,520.5C 68.7416,526.687 66.5749,530.687 60.5,532.5C 55.9285,534.134 53.0951,532.468 52,527.5C 51.3155,517.016 50.4821,517.016 49.5,527.5C 48.5,527.5 47.5,527.5 46.5,527.5C 47.5091,524.951 48.3425,522.285 49,519.5C 51.3471,517.234 53.8471,515.234 56.5,513.5 Z"/></g>
<g><path style="opacity:1" fill="#79563f" d="M 56.5,512.5 C 56.8333,512.5 57.1667,512.5 57.5,512.5C 58.5,512.833 59.1667,513.5 59.5,514.5C 58.0527,515.885 57.0527,515.552 56.5,513.5C 56.5,513.167 56.5,512.833 56.5,512.5 Z"/></g>
<g><path style="opacity:1" fill="#63564d" d="M 160.5,529.5 C 161.5,529.5 162.5,529.5 163.5,529.5C 163.5,530.5 163.5,531.5 163.5,532.5C 162.5,532.5 161.5,532.5 160.5,532.5C 160.5,531.5 160.5,530.5 160.5,529.5 Z"/></g>
<g><path style="opacity:1" fill="#555453" d="M 112.5,522.5 C 117.088,522.587 120.588,524.587 123,528.5C 127.894,539.987 127.56,551.32 122,562.5C 116.116,569.486 110.782,569.153 106,561.5C 101.093,550.012 101.426,538.679 107,527.5C 108.73,525.598 110.563,523.931 112.5,522.5 Z"/></g>
<g><path style="opacity:1" fill="#e1e1df" d="M 113.5,527.5 C 119.016,527.473 120.349,529.64 117.5,534C 112.57,534.427 111.237,532.26 113.5,527.5 Z"/></g>
<g><path style="opacity:1" fill="#645b4f" d="M 170.5,541.5 C 173.861,542.203 174.194,543.537 171.5,545.5C 170.571,544.311 170.238,542.978 170.5,541.5 Z"/></g>
<g><path style="opacity:1" fill="#6e655c" d="M 151.5,543.5 C 155.31,544.754 155.31,545.754 151.5,546.5C 151.5,545.5 151.5,544.5 151.5,543.5 Z"/></g>
<g><path style="opacity:1" fill="#7e7168" d="M 274.5,554.5 C 272.441,551.389 270.608,548.056 269,544.5C 268.623,545.942 267.79,546.942 266.5,547.5C 266.795,545.577 267.628,543.91 269,542.5C 271.656,546.144 273.489,550.144 274.5,554.5 Z"/></g>
<g><path style="opacity:1" fill="#b8aa9e" d="M 266.5,547.5 C 264.594,551.922 262.428,556.256 260,560.5C 259.292,561.381 258.458,562.047 257.5,562.5C 258.64,560.22 259.807,557.886 261,555.5C 261.305,553.443 261.305,551.443 261,549.5C 262.815,548.756 264.648,548.089 266.5,547.5 Z"/></g>
<g><path style="opacity:1" fill="#e09c95" d="M 158.5,550.5 C 164.233,549.895 169.566,551.062 174.5,554C 175.5,562.552 171.5,567.719 162.5,569.5C 157.141,568.313 152.641,565.647 149,561.5C 149.091,555.238 152.258,551.572 158.5,550.5 Z"/></g>
<g><path style="opacity:1" fill="#84776d" d="M 67.5,561.5 C 66.5178,560.859 65.5178,560.193 64.5,559.5C 62.8144,560.857 61.1477,562.19 59.5,563.5C 60.7284,560.925 62.3951,558.592 64.5,556.5C 65.9524,557.94 66.9524,559.606 67.5,561.5 Z"/></g>
<g><path style="opacity:1" fill="#fbf9f7" d="M 67.5,561.5 C 74.6467,572.146 83.6467,580.979 94.5,588C 88.6312,591.204 82.2978,592.704 75.5,592.5C 75.1564,588.772 74.4898,585.105 73.5,581.5C 67.208,580.948 61.0413,579.948 55,578.5C 54.6807,574.283 55.5141,570.283 57.5,566.5C 58.9063,566.027 59.573,565.027 59.5,563.5C 61.1477,562.19 62.8144,560.857 64.5,559.5C 65.5178,560.193 66.5178,560.859 67.5,561.5 Z"/></g>
<g><path style="opacity:1" fill="#81736b" d="M 274.5,554.5 C 277.031,556.966 277.864,559.966 277,563.5C 273,564.167 269,564.833 265,565.5C 264.042,570.123 263.375,574.79 263,579.5C 262.722,580.416 262.222,581.082 261.5,581.5C 261.928,575.791 262.594,570.124 263.5,564.5C 267.445,563.509 271.445,563.176 275.5,563.5C 275.492,560.455 275.159,557.455 274.5,554.5 Z"/></g>
<g><path style="opacity:1" fill="#efedeb" d="M 217.5,511.5 C 226.37,510.844 232.203,514.844 235,523.5C 235.657,531.876 236.49,540.21 237.5,548.5C 234.944,554.984 232.777,561.65 231,568.5C 228.445,570.055 226.612,572.222 225.5,575C 215.481,579.375 205.481,579.542 195.5,575.5C 192.974,570.433 190.974,565.099 189.5,559.5C 189.167,554.167 188.833,548.833 188.5,543.5C 188.55,534.925 189.55,526.592 191.5,518.5C 196.385,518.752 201.219,518.419 206,517.5C 207.03,517.836 207.53,518.503 207.5,519.5C 198.779,527.155 195.279,536.822 197,548.5C 197.652,557.521 201.485,564.688 208.5,570C 216.816,571.425 222.65,568.258 226,560.5C 229.296,549.819 229.296,539.153 226,528.5C 223.853,523.184 220.02,519.851 214.5,518.5C 213.048,517.698 211.382,517.198 209.5,517C 211.324,516.34 212.657,515.173 213.5,513.5C 214.605,512.4 215.938,511.733 217.5,511.5 Z"/></g>
<g><path style="opacity:1" fill="#928880" d="M 214.5,518.5 C 220.02,519.851 223.853,523.184 226,528.5C 229.296,539.153 229.296,549.819 226,560.5C 222.65,568.258 216.816,571.425 208.5,570C 201.485,564.688 197.652,557.521 197,548.5C 195.279,536.822 198.779,527.155 207.5,519.5C 209.717,518.631 212.05,518.298 214.5,518.5 Z"/></g>
<g><path style="opacity:1" fill="#555453" d="M 209.5,522.5 C 216.355,521.851 220.855,524.851 223,531.5C 226.327,541.592 225.994,551.592 222,561.5C 217.96,566.717 213.126,567.717 207.5,564.5C 204.625,561.386 202.791,557.719 202,553.5C 201.333,547.167 201.333,540.833 202,534.5C 203.247,529.663 205.747,525.663 209.5,522.5 Z"/></g>
<g><path style="opacity:1" fill="#e1e2e2" d="M 210.5,526.5 C 216.016,526.473 217.349,528.64 214.5,533C 209.791,533.082 208.458,530.915 210.5,526.5 Z"/></g>
<g><path style="opacity:1" fill="#81756e" d="M 257.5,562.5 C 252.864,570.651 246.864,577.818 239.5,584C 237.423,585.705 235.09,586.872 232.5,587.5C 241.833,580.167 250.167,571.833 257.5,562.5 Z"/></g>
<g><path style="opacity:1" fill="#7d7069" d="M 261.5,581.5 C 261.126,583.95 259.626,584.95 257,584.5C 254.189,584.297 251.522,583.631 249,582.5C 247.601,585.363 246.601,588.363 246,591.5C 245.34,593.324 244.173,594.657 242.5,595.5C 244.487,590.548 246.487,585.548 248.5,580.5C 251.432,581.699 254.432,582.699 257.5,583.5C 259.073,583.248 260.406,582.582 261.5,581.5 Z"/></g>
<g><path style="opacity:1" fill="#faf7f4" d="M 274.5,554.5 C 275.159,557.455 275.492,560.455 275.5,563.5C 271.445,563.176 267.445,563.509 263.5,564.5C 262.594,570.124 261.928,575.791 261.5,581.5C 260.406,582.582 259.073,583.248 257.5,583.5C 254.432,582.699 251.432,581.699 248.5,580.5C 246.487,585.548 244.487,590.548 242.5,595.5C 240.874,595.938 239.207,596.272 237.5,596.5C 232.514,595.476 227.514,594.976 222.5,595C 220.84,596.488 219.84,598.321 219.5,600.5C 218.094,600.973 217.427,601.973 217.5,603.5C 215.697,605.481 214.03,607.648 212.5,610C 205.658,610.61 199.491,608.776 194,604.5C 186.206,615.095 176.372,617.429 164.5,611.5C 163.269,610.282 162.102,608.949 161,607.5C 149.048,617.604 138.215,616.438 128.5,604C 148.769,607.188 169.102,607.188 189.5,604C 202.014,601.887 213.681,597.72 224.5,591.5C 227.442,590.696 230.109,589.362 232.5,587.5C 235.09,586.872 237.423,585.705 239.5,584C 246.864,577.818 252.864,570.651 257.5,562.5C 258.458,562.047 259.292,561.381 260,560.5C 262.428,556.256 264.594,551.922 266.5,547.5C 267.79,546.942 268.623,545.942 269,544.5C 270.608,548.056 272.441,551.389 274.5,554.5 Z"/></g>
<g><path style="opacity:1" fill="#867870" d="M 101.5,591.5 C 126.146,603.552 152.146,607.718 179.5,604C 185.553,603.32 191.553,602.32 197.5,601C 206.637,598.121 215.637,594.955 224.5,591.5C 213.681,597.72 202.014,601.887 189.5,604C 169.102,607.188 148.769,607.188 128.5,604C 138.215,616.438 149.048,617.604 161,607.5C 162.102,608.949 163.269,610.282 164.5,611.5C 162.545,610.677 160.545,610.51 158.5,611C 151.603,617.185 144.27,617.852 136.5,613C 133.322,610.486 130.156,607.986 127,605.5C 122.259,608.37 117.259,610.704 112,612.5C 106.642,609.975 102.809,605.975 100.5,600.5C 103.817,604.649 107.65,608.316 112,611.5C 117.552,609.309 122.718,606.475 127.5,603C 118.001,600.788 109.334,596.955 101.5,591.5 Z"/></g>
<g><path style="opacity:1" fill="#877970" d="M 67.5,561.5 C 77.324,573.331 88.6573,583.331 101.5,591.5C 99.321,591.16 97.4877,590.16 96,588.5C 96.6962,591.438 97.5296,594.438 98.5,597.5C 97.0171,595.1 95.3504,592.766 93.5,590.5C 87.6885,592.856 81.6885,594.023 75.5,594C 73.3269,590.14 72.3269,585.973 72.5,581.5C 66.4067,581.861 60.4067,581.361 54.5,580C 52.6246,574.795 53.6246,570.295 57.5,566.5C 55.5141,570.283 54.6807,574.283 55,578.5C 61.0413,579.948 67.208,580.948 73.5,581.5C 74.4898,585.105 75.1564,588.772 75.5,592.5C 82.2978,592.704 88.6312,591.204 94.5,588C 83.6467,580.979 74.6467,572.146 67.5,561.5 Z"/></g>
<g><path style="opacity:0.035" fill="#a48d8a" d="M 266.5,590.5 C 266.328,591.492 266.662,592.158 267.5,592.5C 265.208,594.267 262.542,595.267 259.5,595.5C 261.891,594.018 264.224,592.351 266.5,590.5 Z"/></g>
<g><path style="opacity:1" fill="#faf8f6" d="M 101.5,591.5 C 109.334,596.955 118.001,600.788 127.5,603C 122.718,606.475 117.552,609.309 112,611.5C 107.65,608.316 103.817,604.649 100.5,600.5C 100.573,598.973 99.9063,597.973 98.5,597.5C 97.5296,594.438 96.6962,591.438 96,588.5C 97.4877,590.16 99.321,591.16 101.5,591.5 Z"/></g>
<g><path style="opacity:1" fill="#81766d" d="M 242.5,595.5 C 242.389,596.117 242.056,596.617 241.5,597C 239.5,597.167 237.5,597.333 235.5,597.5C 231.162,596.902 226.828,596.735 222.5,597C 221.837,598.518 220.837,599.685 219.5,600.5C 219.84,598.321 220.84,596.488 222.5,595C 227.514,594.976 232.514,595.476 237.5,596.5C 239.207,596.272 240.874,595.938 242.5,595.5 Z"/></g>
<g><path style="opacity:1" fill="#857972" d="M 217.5,603.5 C 216.431,608.004 213.764,611.004 209.5,612.5C 204.177,611.34 199.177,609.34 194.5,606.5C 192.016,608.483 189.683,610.65 187.5,613C 179.452,617.551 171.785,617.051 164.5,611.5C 176.372,617.429 186.206,615.095 194,604.5C 199.491,608.776 205.658,610.61 212.5,610C 214.03,607.648 215.697,605.481 217.5,603.5 Z"/></g>
<g><path style="opacity:0.11" fill="#9a8781" d="M 247.5,602.5 C 247.489,604.017 246.823,605.184 245.5,606C 239.322,607.719 232.989,609.552 226.5,611.5C 226.944,609.887 227.944,608.72 229.5,608C 232.956,608.093 235.956,607.093 238.5,605C 241.811,604.943 244.811,604.11 247.5,602.5 Z"/></g>
<g><path style="opacity:0.996" fill="#b08a78" d="M 245.5,669.5 C 246.195,662.918 247.195,656.252 248.5,649.5C 252.795,648.339 257.129,648.172 261.5,649C 262.804,649.804 263.471,650.971 263.5,652.5C 261.926,664.463 261.092,676.463 261,688.5C 262.836,690.604 265.002,690.938 267.5,689.5C 268.932,685.981 269.766,682.314 270,678.5C 270.224,669.13 270.891,659.796 272,650.5C 272.5,650 273,649.5 273.5,649C 277.5,648.333 281.5,648.333 285.5,649C 286.535,661.777 286.369,674.61 285,687.5C 281.258,702.299 271.758,708.466 256.5,706C 250.37,705.204 246.87,701.704 246,695.5C 244.334,686.849 244.167,678.182 245.5,669.5 Z"/></g>
<g><path style="opacity:0.998" fill="#b08a78" d="M 42.5,647.5 C 46.5138,647.334 50.5138,647.501 54.5,648C 55.9389,648.991 56.9389,650.324 57.5,652C 55.9134,663.726 55.2467,675.56 55.5,687.5C 61.1764,687.334 66.8431,687.501 72.5,688C 73.8333,688.667 74.8333,689.667 75.5,691C 75.1528,692.569 74.9861,694.402 75,696.5C 79.5392,681.549 84.8726,666.883 91,652.5C 94.2909,649.273 98.2909,647.606 103,647.5C 107.124,648.22 109.79,650.554 111,654.5C 114.613,668.733 117.78,683.066 120.5,697.5C 121.705,684.046 122.872,670.046 124,655.5C 124.219,654.062 124.719,652.729 125.5,651.5C 133.278,650.198 141.111,649.198 149,648.5C 157.988,649.488 162.988,654.488 164,663.5C 164.119,658.718 164.785,654.051 166,649.5C 170.079,648.371 174.245,648.204 178.5,649C 179.804,649.804 180.471,650.971 180.5,652.5C 178.708,665.134 178.374,677.801 179.5,690.5C 184.079,691.444 186.579,689.444 187,684.5C 187.065,672.704 188.065,661.037 190,649.5C 194.333,648.167 198.667,648.167 203,649.5C 203.903,662.881 203.57,676.214 202,689.5C 199.108,700.557 191.942,706.224 180.5,706.5C 171.615,707.483 165.781,703.817 163,695.5C 162.667,691.5 162.333,687.5 162,683.5C 163.497,695.297 158.664,702.797 147.5,706C 133.413,706.25 119.413,706.25 105.5,706C 103.812,703.175 102.979,700.009 103,696.5C 99.8545,695.451 96.6878,695.617 93.5,697C 92.1265,700.134 90.4598,703.134 88.5,706C 82.9806,706.999 77.6473,706.499 72.5,704.5C 61.5145,706.049 50.5145,706.382 39.5,705.5C 39.1667,702.667 38.8333,699.833 38.5,697C 39.3683,681.502 40.2017,666.002 41,650.5C 41.5133,649.473 42.0133,648.473 42.5,647.5 Z M 144.5,663.5 C 146.085,664.002 146.585,665.002 146,666.5C 143.772,669.078 140.939,670.411 137.5,670.5C 137.357,668.738 137.691,667.071 138.5,665.5C 140.631,664.831 142.631,664.165 144.5,663.5 Z M 161.5,670.5 C 162.809,674.351 162.809,678.351 161.5,682.5C 160.167,680.833 158.833,679.167 157.5,677.5C 159.616,675.6 160.949,673.267 161.5,670.5 Z M 98.5,675.5 C 99.9313,676.78 100.598,678.447 100.5,680.5C 99.325,680.719 98.325,680.386 97.5,679.5C 98.2458,678.264 98.5792,676.93 98.5,675.5 Z M 138.5,684.5 C 144.168,683.641 145.501,685.474 142.5,690C 139.459,692.415 137.459,691.749 136.5,688C 136.978,686.697 137.645,685.531 138.5,684.5 Z M 110.5,694.5 C 112.225,694.843 112.725,695.843 112,697.5C 110.961,696.756 110.461,695.756 110.5,694.5 Z"/></g>
<g><path style="opacity:0.997" fill="#b08a78" d="M 245.5,669.5 C 243.975,672.037 242.308,674.537 240.5,677C 246.543,687.112 245.21,696.112 236.5,704C 234.608,704.973 232.608,705.64 230.5,706C 221.482,706.832 212.482,706.665 203.5,705.5C 202.954,704.228 202.621,702.894 202.5,701.5C 203.856,688.52 205.022,675.52 206,662.5C 206.038,658.437 206.872,654.603 208.5,651C 216.004,650.2 223.504,649.366 231,648.5C 243.711,649.896 248.544,656.896 245.5,669.5 Z M 221.5,664.5 C 223.924,664.192 226.257,664.526 228.5,665.5C 227.067,668.993 224.4,670.66 220.5,670.5C 220.325,668.379 220.659,666.379 221.5,664.5 Z M 221.5,684.5 C 223.167,684.5 224.833,684.5 226.5,684.5C 226.545,689.122 224.212,691.455 219.5,691.5C 219.185,688.789 219.852,686.456 221.5,684.5 Z"/></g>
</svg>
