<?xml version="1.0" standalone="no"?>
<!DOCTYPE svg PUBLIC "-//W3C//DTD SVG 20010904//EN"
 "http://www.w3.org/TR/2001/REC-SVG-20010904/DTD/svg10.dtd">
<svg version="1.0" xmlns="http://www.w3.org/2000/svg"
 width="348.000000pt" height="174.000000pt" viewBox="0 0 348.000000 174.000000"
 preserveAspectRatio="xMidYMid meet">

<g transform="translate(0.000000,174.000000) scale(0.100000,-0.100000)"
fill="#000000" stroke="none">
<path d="M1580 1206 c-25 -6 -52 -16 -61 -21 -23 -15 -204 -173 -269 -236 -69
-66 -123 -100 -210 -129 -59 -20 -77 -22 -196 -15 l-131 6 -44 -33 c-60 -46
-94 -98 -129 -198 -34 -97 -37 -136 -14 -169 16 -22 18 -23 198 -20 154 2 186
0 213 -14 75 -39 158 -50 349 -43 199 7 248 2 469 -46 159 -34 219 -34 357 3
171 44 376 168 442 266 35 51 35 105 1 139 -22 22 -111 67 -216 111 -19 8 -28
21 -34 49 -25 137 -99 229 -211 264 -39 12 -103 22 -147 24 -76 3 -80 4 -112
39 l-34 37 -88 -1 c-48 0 -108 -6 -133 -13z m210 -13 c0 -3 -7 -15 -17 -25
-12 -13 -30 -18 -68 -18 -28 0 -59 -6 -69 -13 -23 -17 -17 -48 12 -63 l23 -12
-33 -23 c-19 -14 -50 -25 -76 -27 -103 -6 -190 -72 -237 -178 -29 -66 -66
-116 -149 -202 -72 -74 -98 -90 -173 -102 -50 -8 -439 3 -449 13 -7 7 29 101
52 138 12 20 42 53 66 73 l43 37 125 -7 c104 -5 136 -4 185 11 93 27 155 63
230 135 39 36 86 80 106 96 20 16 66 56 103 88 47 41 81 63 114 72 49 13 212
19 212 7z m50 -43 c6 -11 8 -25 5 -30 -7 -12 -55 9 -55 25 0 30 35 34 50 5z
m-60 -41 c24 -11 59 -31 77 -45 36 -27 58 -15 24 14 -15 12 -18 21 -11 32 7
11 27 15 80 13 152 -4 242 -54 300 -167 31 -62 35 -77 35 -150 0 -70 -4 -90
-32 -148 -35 -75 -61 -90 -118 -69 -47 17 -92 14 -114 -8 -27 -27 -135 -40
-144 -18 -3 9 -25 21 -49 28 -24 7 -54 20 -68 29 -23 15 -103 50 -115 50 -3 0
-5 -6 -5 -13 0 -8 17 -19 39 -25 50 -15 91 -48 91 -73 0 -30 -43 -41 -134 -33
-50 3 -92 2 -108 -5 -16 -6 -28 -7 -28 -2 0 19 30 31 68 29 51 -4 60 15 12 22
-74 13 -122 63 -142 149 l-12 52 37 37 c37 37 38 37 112 34 l74 -3 42 57 c23
31 50 59 60 61 23 6 24 24 3 66 -25 50 -45 67 -75 67 -34 0 -46 15 -22 29 28
16 74 12 123 -10z m-62 -137 c-14 -15 -34 -40 -44 -57 l-19 -29 -8 59 c-7 59
-7 60 25 87 l33 27 19 -30 c19 -30 19 -30 -6 -57z m-101 1 c4 -10 7 -38 8 -63
l0 -45 -60 3 c-95 5 -130 -25 -219 -187 -26 -47 -62 -104 -82 -127 -77 -95
-257 -141 -567 -146 -129 -3 -140 -1 -153 17 -8 11 -14 36 -12 55 l3 35 90 -5
c50 -3 162 -5 250 -5 128 0 169 3 205 18 77 29 216 187 275 312 22 46 48 84
69 100 67 51 180 73 193 38z m822 -229 c147 -68 161 -111 69 -210 -96 -105
-242 -184 -417 -228 -137 -34 -182 -33 -374 11 l-162 37 -255 1 c-220 1 -263
3 -310 19 l-55 19 80 17 c192 43 259 90 340 240 l49 90 17 -51 c9 -28 31 -65
48 -83 30 -31 31 -34 17 -61 -15 -30 -12 -55 9 -55 6 0 27 5 45 11 33 12 110
4 217 -23 50 -12 86 -5 114 23 26 26 134 47 161 30 24 -15 79 -14 103 3 11 7
37 19 57 25 21 7 46 24 56 39 25 36 62 136 62 168 0 23 3 25 27 19 15 -3 61
-22 102 -41z m-329 -174 c13 -9 13 -11 0 -20 -8 -5 -22 -10 -30 -10 -8 0 -22
5 -30 10 -13 9 -13 11 0 20 8 5 22 10 30 10 8 0 22 -5 30 -10z m-265 -14 c36
-26 -18 -75 -65 -58 l-21 8 20 18 c12 11 21 25 21 33 0 17 21 17 45 -1z"/>
<path d="M1995 899 c-9 -14 24 -49 47 -49 21 0 25 29 6 48 -15 15 -45 16 -53
1z"/>
<path d="M1985 820 c-8 -13 10 -45 54 -99 21 -25 35 -52 33 -64 -3 -13 1 -17
10 -13 7 3 21 9 31 12 9 4 17 10 17 16 0 23 -42 88 -79 121 -43 38 -56 44 -66
27z m97 -95 c9 -16 6 -16 -17 5 -15 14 -32 34 -37 45 -9 16 -6 16 17 -5 15
-14 32 -34 37 -45z"/>
<path d="M2155 730 c-11 -17 3 -57 22 -64 27 -11 40 11 23 41 -17 30 -35 39
-45 23z"/>
<path d="M1312 1130 c-43 -31 -66 -63 -59 -83 3 -7 9 0 15 14 11 28 52 64 83
74 19 6 27 25 11 25 -5 0 -27 -13 -50 -30z"/>
<path d="M1235 1130 c-27 -30 -12 -34 15 -5 13 14 19 25 13 25 -5 0 -18 -9
-28 -20z"/>
</g>
</svg>
