<?xml version="1.0" standalone="no"?>
<!DOCTYPE svg PUBLIC "-//W3C//DTD SVG 20010904//EN"
 "http://www.w3.org/TR/2001/REC-SVG-20010904/DTD/svg10.dtd">
<svg version="1.0" xmlns="http://www.w3.org/2000/svg"
 width="348.000000pt" height="200.000000pt" viewBox="0 0 348.000000 200.000000"
 preserveAspectRatio="xMidYMid meet">

<g transform="translate(0.000000,200.000000) scale(0.100000,-0.100000)"
fill="#000000" stroke="none">
<path d="M1815 1555 c-5 -2 -29 -9 -52 -15 -23 -6 -63 -26 -88 -46 -25 -19
-70 -44 -100 -55 -143 -54 -217 -155 -171 -238 12 -21 11 -30 -6 -69 -23 -50
-28 -127 -14 -215 l8 -57 -27 10 c-98 37 -184 31 -254 -21 -63 -45 -95 -103
-95 -171 -1 -52 3 -61 34 -93 38 -39 108 -65 174 -65 54 0 127 35 201 97 l60
49 42 -32 c49 -38 135 -72 213 -85 74 -12 230 -11 310 2 81 13 200 69 235 110
44 53 85 146 106 240 21 97 18 145 -12 216 -17 40 -17 43 2 79 33 65 21 110
-43 171 -31 30 -129 83 -154 83 -6 0 -18 7 -25 16 -25 30 -86 63 -147 78 -53
14 -171 20 -197 11z m195 -36 c58 -12 125 -59 153 -107 11 -18 30 -63 43 -100
l24 -67 -25 -22 c-85 -75 -419 -95 -562 -33 -57 24 -109 70 -80 70 9 0 17 7
17 15 0 9 16 49 35 90 40 84 86 128 155 150 55 17 171 19 240 4z m-419 -126
c-5 -10 -23 -31 -40 -46 -79 -70 -54 -136 73 -192 124 -55 389 -57 529 -5 119
45 161 124 98 184 -28 27 -47 66 -32 66 4 0 27 -13 52 -29 100 -63 116 -124
49 -191 -22 -22 -40 -44 -40 -49 0 -17 19 -22 40 -11 18 10 22 7 36 -26 8 -20
15 -61 15 -91 0 -62 -19 -93 -58 -93 -19 0 -28 10 -44 45 -11 25 -26 45 -32
45 -20 0 -37 -22 -37 -46 0 -20 -4 -21 -66 -18 -36 1 -69 5 -72 8 -12 13 -52
5 -64 -13 -11 -15 -110 -51 -141 -51 -3 0 -9 15 -12 33 -15 69 -40 73 -93 17
-52 -54 -92 -43 -117 34 -14 44 -41 45 -80 2 -37 -40 -67 -46 -105 -19 -43 30
-51 45 -45 93 7 50 24 102 34 98 51 -27 63 -30 71 -22 7 7 -5 26 -35 56 -36
37 -45 53 -45 82 0 46 43 96 112 130 62 31 61 31 49 9z m583 -493 c31 -11 35
-49 8 -73 -32 -29 -77 -39 -222 -48 -163 -10 -353 -33 -409 -50 -21 -6 -77
-42 -126 -81 -109 -86 -133 -98 -198 -103 -51 -4 -51 -4 -11 4 123 27 224 112
224 189 0 30 -48 82 -95 103 -60 27 -165 23 -165 -6 0 -10 15 -12 59 -8 100 9
183 -46 167 -110 -15 -60 -124 -137 -193 -137 -20 0 -36 -7 -42 -17 -8 -16
-12 -16 -51 2 -58 26 -80 58 -80 115 0 56 39 122 96 160 32 21 49 25 113 25
55 0 86 -5 111 -19 115 -61 113 -61 195 -60 78 1 125 12 440 98 99 27 140 31
179 16z"/>
<path d="M1764 1449 c-3 -6 -2 -15 3 -20 13 -13 43 -1 43 17 0 16 -36 19 -46
3z"/>
<path d="M1964 1439 c-10 -17 23 -46 38 -31 8 8 8 15 -2 27 -15 18 -26 19 -36
4z"/>
<path d="M1812 1418 c-32 -32 -3 -48 91 -48 65 0 72 11 25 40 -37 22 -98 26
-116 8z m98 -19 c10 -5 -3 -8 -37 -9 -29 0 -53 4 -53 9 0 21 54 20 90 0z"/>
<path d="M1005 1417 c-7 -18 -25 -38 -39 -45 -33 -15 -34 -47 -1 -68 14 -9 25
-26 25 -39 0 -12 7 -28 16 -36 13 -10 20 -10 44 4 15 9 44 17 64 17 38 0 43 9
27 52 -6 17 -5 29 5 43 25 34 17 53 -25 60 -22 3 -47 15 -57 26 -25 28 -43 23
-59 -14z m60 -17 c10 -11 31 -20 47 -20 28 0 28 0 12 -25 -11 -17 -14 -34 -9
-56 7 -31 6 -32 -21 -26 -21 4 -35 0 -51 -15 l-21 -20 -7 34 c-4 18 -16 39
-26 46 -25 18 -24 30 5 43 14 7 27 22 30 35 8 29 17 30 41 4z"/>
<path d="M1185 1329 c-4 -6 -5 -11 -4 -13 10 -6 109 7 109 15 0 13 -97 11
-105 -2z"/>
<path d="M1271 1195 c-29 -34 -41 -61 -23 -53 5 2 25 22 46 46 25 27 33 42 23
42 -8 0 -29 -16 -46 -35z"/>
<path d="M1141 1160 c-13 -11 -38 -20 -57 -20 -28 0 -34 -4 -34 -21 0 -11 5
-29 10 -39 7 -13 7 -28 0 -46 -15 -37 4 -58 46 -51 22 4 37 1 45 -9 6 -8 22
-14 34 -14 18 0 25 7 30 32 4 18 18 40 31 51 31 24 30 34 -4 54 -16 9 -33 30
-38 47 -11 37 -31 42 -63 16z m44 -39 c4 -20 14 -31 31 -35 31 -8 30 -19 -1
-40 -16 -10 -25 -26 -25 -41 0 -29 -12 -32 -31 -9 -9 11 -23 14 -47 10 -34 -5
-34 -5 -28 28 4 19 2 45 -4 60 -9 25 -8 26 24 26 18 0 39 7 46 15 18 22 28 18
35 -14z"/>
</g>
</svg>
