<?xml version="1.0" standalone="no"?>
<!DOCTYPE svg PUBLIC "-//W3C//DTD SVG 20010904//EN"
 "http://www.w3.org/TR/2001/REC-SVG-20010904/DTD/svg10.dtd">
<svg version="1.0" xmlns="http://www.w3.org/2000/svg"
 width="225.000000pt" height="225.000000pt" viewBox="0 0 225.000000 225.000000"
 preserveAspectRatio="xMidYMid meet">

<g transform="translate(0.000000,225.000000) scale(0.100000,-0.100000)"
fill="#000000" stroke="none">
<path d="M780 1743 c-103 -17 -239 -88 -294 -154 -41 -48 -73 -123 -87 -204
-8 -46 -20 -80 -36 -99 -52 -62 -68 -124 -52 -196 5 -25 14 -91 19 -147 13
-138 33 -220 79 -317 90 -193 253 -333 461 -397 96 -30 279 -33 379 -5 149 41
297 140 388 261 103 136 150 270 160 450 3 61 10 116 16 123 5 6 21 12 36 12
38 0 89 35 97 66 4 17 2 37 -7 53 -12 22 -24 27 -72 32 -38 4 -67 14 -89 31
-80 61 -132 71 -202 40 -32 -14 -53 -16 -114 -11 -80 8 -92 13 -74 31 7 7 12
26 12 43 0 44 -30 69 -87 71 l-46 2 -33 71 c-65 140 -134 206 -249 236 -55 14
-147 18 -205 8z m204 -57 c99 -30 160 -93 216 -224 l23 -53 -22 -38 c-25 -46
-27 -84 -5 -106 19 -18 59 -13 83 10 12 12 21 10 62 -11 27 -13 57 -24 69 -24
31 0 24 -12 -25 -43 -27 -17 -45 -36 -45 -47 0 -31 19 -33 55 -5 68 51 130 67
171 42 12 -6 46 -27 75 -44 35 -22 67 -33 92 -33 30 0 37 -4 37 -20 0 -27 -42
-36 -97 -22 -87 24 -193 9 -193 -26 0 -8 -6 -12 -12 -9 -7 3 -42 18 -77 33
l-64 28 -70 -73 -70 -74 -62 22 -62 22 -101 -25 c-55 -14 -107 -26 -114 -26
-8 0 -34 35 -58 78 -62 110 -129 212 -138 212 -4 0 -31 -16 -61 -36 -46 -31
-52 -33 -46 -15 15 48 -53 31 -109 -28 -25 -26 -28 -35 -21 -68 12 -65 11 -88
-5 -88 -26 0 -54 74 -55 141 0 51 4 66 28 97 15 20 41 44 58 52 31 17 41 55
13 55 -19 0 -15 39 13 125 30 92 145 186 271 220 64 18 189 18 246 1z m365
-319 c14 -18 4 -27 -32 -27 -16 0 -42 -9 -58 -21 -25 -17 -29 -18 -29 -4 0 46
91 85 119 52z m385 -142 c56 -39 108 -59 137 -52 25 7 36 -17 19 -38 -18 -21
-64 -19 -85 5 -12 13 -31 20 -57 20 -42 0 -83 18 -137 58 -29 23 -31 27 -15
33 44 18 89 9 138 -26z m-1006 -200 c46 -80 89 -145 95 -145 7 0 63 14 126 30
l114 29 65 -25 c35 -13 68 -24 71 -24 4 0 37 33 72 73 l65 74 85 -39 84 -39
66 36 c57 30 71 34 94 25 14 -5 40 -10 56 -10 l29 0 0 -78 c0 -177 -73 -345
-210 -483 -68 -69 -102 -94 -170 -127 -125 -61 -191 -75 -330 -69 -133 5 -211
26 -310 84 -83 49 -204 170 -253 253 -47 81 -87 204 -94 292 l-6 67 33 -1 c42
-1 60 22 60 78 0 32 4 44 18 48 9 3 46 26 82 50 36 25 67 45 70 45 3 0 43 -64
88 -144z m-198 130 c0 -2 -10 -9 -22 -15 -22 -11 -22 -10 -4 4 21 17 26 19 26
11z"/>
<path d="M984 1609 c-18 -20 -18 -21 1 -35 32 -23 94 7 82 40 -9 23 -60 20
-83 -5z"/>
<path d="M774 1517 c-48 -42 -9 -78 44 -41 26 18 27 57 1 62 -9 2 -29 -8 -45
-21z"/>
<path d="M913 1495 c-65 -65 -25 -95 66 -48 90 46 93 83 8 83 -31 0 -46 -7
-74 -35z m87 0 c0 -7 -57 -35 -72 -35 -19 1 34 40 55 40 9 0 17 -2 17 -5z"/>
</g>
</svg>
